<svg xmlns="http://www.w3.org/2000/svg" xmlns:xlink="http://www.w3.org/1999/xlink" contentStyleType="text/css" height="632px" preserveAspectRatio="none" style="width:717px;height:632px;background:#FFFFFF;" version="1.1" viewBox="0 0 717 632" width="717px" zoomAndPan="magnify"><defs/><g><!--class WWEIA-Category--><g id="elem_WWEIA-Category"><rect codeLine="1" fill="#F1F1F1" height="80.5938" id="WWEIA-Category" rx="2.5" ry="2.5" style="stroke:#181818;stroke-width:0.5;" width="151.2393" x="132.6" y="7"/><ellipse cx="147.6" cy="23" fill="#ADD1B2" rx="11" ry="11" style="stroke:#181818;stroke-width:1.0;"/><path d="M151.7094,29 L143.9906,29 L143.9906,16.6094 L151.7094,16.6094 L151.7094,18.7656 L146.4438,18.7656 L146.4438,21.4375 L151.2094,21.4375 L151.2094,23.5938 L146.4438,23.5938 L146.4438,26.8438 L151.7094,26.8438 L151.7094,29 Z " fill="#000000"/><text fill="#000000" font-family="sans-serif" font-size="14" lengthAdjust="spacing" textLength="119.2393" x="161.6" y="27.8467">WWEIA-Category</text><line style="stroke:#181818;stroke-width:0.5;" x1="133.6" x2="282.8393" y1="39" y2="39"/><text fill="#000000" font-family="sans-serif" font-size="14" font-weight="bold" lengthAdjust="spacing" textLength="16.8301" x="138.6" y="55.9951">ID</text><text fill="#000000" font-family="sans-serif" font-size="14" lengthAdjust="spacing" textLength="27.4189" x="159.8803" y="55.9951">: int</text><text fill="#000000" font-family="sans-serif" font-size="14" lengthAdjust="spacing" textLength="133.54" x="138.6" y="72.292">Description : string</text><line style="stroke:#181818;stroke-width:0.5;" x1="133.6" x2="282.8393" y1="79.5938" y2="79.5938"/></g><!--class Food-and-Beverages--><g id="elem_Food-and-Beverages"><rect codeLine="6" fill="#F1F1F1" height="113.1875" id="Food-and-Beverages" rx="2.5" ry="2.5" style="stroke:#181818;stroke-width:0.5;" width="237.0664" x="89.68" y="164.59"/><ellipse cx="131.8189" cy="180.59" fill="#ADD1B2" rx="11" ry="11" style="stroke:#181818;stroke-width:1.0;"/><path d="M135.9282,186.59 L128.2095,186.59 L128.2095,174.1994 L135.9282,174.1994 L135.9282,176.3556 L130.6626,176.3556 L130.6626,179.0275 L135.4282,179.0275 L135.4282,181.1837 L130.6626,181.1837 L130.6626,184.4337 L135.9282,184.4337 L135.9282,186.59 Z " fill="#000000"/><text fill="#000000" font-family="sans-serif" font-size="14" lengthAdjust="spacing" textLength="144.7578" x="151.8497" y="185.4367">Food-and-Beverages</text><line style="stroke:#181818;stroke-width:0.5;" x1="90.68" x2="325.7464" y1="196.59" y2="196.59"/><text fill="#000000" font-family="sans-serif" font-size="14" font-weight="bold" lengthAdjust="spacing" textLength="16.8301" x="109.68" y="213.5851">ID</text><text fill="#000000" font-family="sans-serif" font-size="14" lengthAdjust="spacing" textLength="27.4189" x="130.9603" y="213.5851">: int</text><text fill="#000000" font-family="sans-serif" font-size="14" lengthAdjust="spacing" textLength="133.54" x="109.68" y="229.882">Description : string</text><text fill="#000000" font-family="sans-serif" font-size="14" lengthAdjust="spacing" textLength="211.0664" x="109.68" y="246.1789">Additional_Description : string</text><ellipse cx="100.68" cy="259.1291" fill="#000000" rx="3" ry="3" style="stroke:#000000;stroke-width:1.0;"/><text fill="#000000" font-family="sans-serif" font-size="14" lengthAdjust="spacing" textLength="111.0156" x="109.68" y="262.4757">WWEIA_ID* : int</text><line style="stroke:#181818;stroke-width:0.5;" x1="90.68" x2="325.7464" y1="269.7775" y2="269.7775"/></g><!--class Portions-and-Weights--><g id="elem_Portions-and-Weights"><rect codeLine="13" fill="#F1F1F1" height="96.8906" id="Portions-and-Weights" rx="2.5" ry="2.5" style="stroke:#181818;stroke-width:0.5;" width="222.4307" x="7" y="354.78"/><ellipse cx="40.1011" cy="370.78" fill="#ADD1B2" rx="11" ry="11" style="stroke:#181818;stroke-width:1.0;"/><path d="M44.2104,376.78 L36.4917,376.78 L36.4917,364.3894 L44.2104,364.3894 L44.2104,366.5456 L38.9448,366.5456 L38.9448,369.2175 L43.7104,369.2175 L43.7104,371.3738 L38.9448,371.3738 L38.9448,374.6238 L44.2104,374.6238 L44.2104,376.78 Z " fill="#000000"/><text fill="#000000" font-family="sans-serif" font-size="14" lengthAdjust="spacing" textLength="150.2061" x="58.1235" y="375.6267">Portions-and-Weights</text><line style="stroke:#181818;stroke-width:0.5;" x1="8" x2="228.4307" y1="386.78" y2="386.78"/><ellipse cx="18" cy="400.4284" fill="#000000" rx="3" ry="3" style="stroke:#000000;stroke-width:1.0;"/><text fill="#000000" font-family="sans-serif" font-size="14" lengthAdjust="spacing" textLength="196.4307" x="27" y="403.7751">FoodAndBeverages_ID* : int</text><text fill="#000000" font-family="sans-serif" font-size="14" lengthAdjust="spacing" textLength="133.54" x="27" y="420.072">Description : string</text><text fill="#000000" font-family="sans-serif" font-size="14" lengthAdjust="spacing" textLength="94.6641" x="27" y="436.3689">Weight : float</text><line style="stroke:#181818;stroke-width:0.5;" x1="8" x2="228.4307" y1="443.6706" y2="443.6706"/></g><!--class Nutrients--><g id="elem_Nutrients"><rect codeLine="19" fill="#F1F1F1" height="96.8906" id="Nutrients" rx="2.5" ry="2.5" style="stroke:#181818;stroke-width:0.5;" width="145.54" x="425.45" y="528.67"/><ellipse cx="462.4055" cy="544.67" fill="#ADD1B2" rx="11" ry="11" style="stroke:#181818;stroke-width:1.0;"/><path d="M466.5149,550.67 L458.7961,550.67 L458.7961,538.2794 L466.5149,538.2794 L466.5149,540.4356 L461.2493,540.4356 L461.2493,543.1075 L466.0149,543.1075 L466.0149,545.2638 L461.2493,545.2638 L461.2493,548.5138 L466.5149,548.5138 L466.5149,550.67 Z " fill="#000000"/><text fill="#000000" font-family="sans-serif" font-size="14" lengthAdjust="spacing" textLength="64.75" x="481.2845" y="549.5167">Nutrients</text><line style="stroke:#181818;stroke-width:0.5;" x1="426.45" x2="569.99" y1="560.67" y2="560.67"/><text fill="#000000" font-family="sans-serif" font-size="14" font-weight="bold" lengthAdjust="spacing" textLength="16.8301" x="431.45" y="577.6651">ID</text><text fill="#000000" font-family="sans-serif" font-size="14" lengthAdjust="spacing" textLength="27.4189" x="452.7303" y="577.6651">: int</text><text fill="#000000" font-family="sans-serif" font-size="14" lengthAdjust="spacing" textLength="133.54" x="431.45" y="593.962">Description : string</text><text fill="#000000" font-family="sans-serif" font-size="14" lengthAdjust="spacing" textLength="89.5986" x="431.45" y="610.2589">Units : string</text><line style="stroke:#181818;stroke-width:0.5;" x1="426.45" x2="569.99" y1="617.5606" y2="617.5606"/></g><!--class Ingredients--><g id="elem_Ingredients"><rect codeLine="25" fill="#F1F1F1" height="96.8906" id="Ingredients" rx="2.5" ry="2.5" style="stroke:#181818;stroke-width:0.5;" width="145.54" x="546.45" y="172.74"/><ellipse cx="576.8563" cy="188.74" fill="#ADD1B2" rx="11" ry="11" style="stroke:#181818;stroke-width:1.0;"/><path d="M580.9657,194.74 L573.247,194.74 L573.247,182.3494 L580.9657,182.3494 L580.9657,184.5056 L575.7001,184.5056 L575.7001,187.1775 L580.4657,187.1775 L580.4657,189.3337 L575.7001,189.3337 L575.7001,192.5837 L580.9657,192.5837 L580.9657,194.74 Z " fill="#000000"/><text fill="#000000" font-family="sans-serif" font-size="14" lengthAdjust="spacing" textLength="79.3037" x="594.28" y="193.5867">Ingredients</text><line style="stroke:#181818;stroke-width:0.5;" x1="547.45" x2="690.99" y1="204.74" y2="204.74"/><text fill="#000000" font-family="sans-serif" font-size="14" font-weight="bold" lengthAdjust="spacing" textLength="16.8301" x="552.45" y="221.7351">ID</text><text fill="#000000" font-family="sans-serif" font-size="14" lengthAdjust="spacing" textLength="27.4189" x="573.7303" y="221.7351">: int</text><text fill="#000000" font-family="sans-serif" font-size="14" lengthAdjust="spacing" textLength="82.3867" x="552.45" y="238.032">FDC_ID : int</text><text fill="#000000" font-family="sans-serif" font-size="14" lengthAdjust="spacing" textLength="133.54" x="552.45" y="254.3289">Description : string</text><line style="stroke:#181818;stroke-width:0.5;" x1="547.45" x2="690.99" y1="261.6306" y2="261.6306"/></g><!--class Ingredients-Values--><g id="elem_Ingredients-Values"><rect codeLine="31" fill="#F1F1F1" height="96.8906" id="Ingredients-Values" rx="2.5" ry="2.5" style="stroke:#181818;stroke-width:0.5;" width="182.3516" x="528.04" y="354.78"/><ellipse cx="551.6665" cy="370.78" fill="#ADD1B2" rx="11" ry="11" style="stroke:#181818;stroke-width:1.0;"/><path d="M555.7758,376.78 L548.0571,376.78 L548.0571,364.3894 L555.7758,364.3894 L555.7758,366.5456 L550.5102,366.5456 L550.5102,369.2175 L555.2758,369.2175 L555.2758,371.3738 L550.5102,371.3738 L550.5102,374.6238 L555.7758,374.6238 L555.7758,376.78 Z " fill="#000000"/><text fill="#000000" font-family="sans-serif" font-size="14" lengthAdjust="spacing" textLength="131.1816" x="567.5835" y="375.6267">Ingredients-Values</text><line style="stroke:#181818;stroke-width:0.5;" x1="529.04" x2="709.3916" y1="386.78" y2="386.78"/><ellipse cx="539.04" cy="400.4284" fill="#000000" rx="3" ry="3" style="stroke:#000000;stroke-width:1.0;"/><text fill="#000000" font-family="sans-serif" font-size="14" lengthAdjust="spacing" textLength="132.7881" x="548.04" y="403.7751">Ingredient_ID* : int</text><ellipse cx="539.04" cy="416.7253" fill="#000000" rx="3" ry="3" style="stroke:#000000;stroke-width:1.0;"/><text fill="#000000" font-family="sans-serif" font-size="14" lengthAdjust="spacing" textLength="125.5283" x="548.04" y="420.072">Nutrients_ID* : int</text><text fill="#000000" font-family="sans-serif" font-size="14" lengthAdjust="spacing" textLength="156.3516" x="548.04" y="436.3689">Nutrients_Value : float</text><line style="stroke:#181818;stroke-width:0.5;" x1="529.04" x2="709.3916" y1="443.6706" y2="443.6706"/></g><!--class Food-and-Beverages-Values--><g id="elem_Food-and-Beverages-Values"><rect codeLine="37" fill="#F1F1F1" height="80.5938" id="Food-and-Beverages-Values" rx="2.5" ry="2.5" style="stroke:#181818;stroke-width:0.5;" width="228.6357" x="264.9" y="362.93"/><ellipse cx="279.9" cy="378.93" fill="#ADD1B2" rx="11" ry="11" style="stroke:#181818;stroke-width:1.0;"/><path d="M284.0094,384.93 L276.2906,384.93 L276.2906,372.5394 L284.0094,372.5394 L284.0094,374.6956 L278.7438,374.6956 L278.7438,377.3675 L283.5094,377.3675 L283.5094,379.5237 L278.7438,379.5237 L278.7438,382.7737 L284.0094,382.7737 L284.0094,384.93 Z " fill="#000000"/><text fill="#000000" font-family="sans-serif" font-size="14" lengthAdjust="spacing" textLength="196.6357" x="293.9" y="383.7767">Food-and-Beverages-Values</text><line style="stroke:#181818;stroke-width:0.5;" x1="265.9" x2="492.5357" y1="394.93" y2="394.93"/><ellipse cx="275.9" cy="408.5784" fill="#000000" rx="3" ry="3" style="stroke:#000000;stroke-width:1.0;"/><text fill="#000000" font-family="sans-serif" font-size="14" lengthAdjust="spacing" textLength="196.4307" x="284.9" y="411.9251">FoodAndBeverages_ID* : int</text><ellipse cx="275.9" cy="424.8753" fill="#000000" rx="3" ry="3" style="stroke:#000000;stroke-width:1.0;"/><text fill="#000000" font-family="sans-serif" font-size="14" lengthAdjust="spacing" textLength="125.5283" x="284.9" y="428.222">Nutrients_ID* : int</text><line style="stroke:#181818;stroke-width:0.5;" x1="265.9" x2="492.5357" y1="435.5237" y2="435.5237"/></g><!--link WWEIA-Category to Food-and-Beverages--><g id="link_WWEIA-Category_Food-and-Beverages"><path codeLine="42" d="M208.22,95.73 C208.22,118.43 208.22,121.32 208.22,146.32 " fill="none" id="WWEIA-Category-Food-and-Beverages" style="stroke:#181818;stroke-width:1.0;"/><line style="stroke:#181818;stroke-width:1.0;" x1="204.22" x2="212.22" y1="91.73" y2="91.73"/><line style="stroke:#181818;stroke-width:1.0;" x1="204.22" x2="212.22" y1="94.73" y2="94.73"/><line style="stroke:#181818;stroke-width:1.0;" x1="208.22" x2="208.22" y1="95.73" y2="87.73"/><line style="stroke:#181818;stroke-width:1.0;" x1="208.22" x2="214.22" y1="156.32" y2="164.32"/><line style="stroke:#181818;stroke-width:1.0;" x1="208.22" x2="202.22" y1="156.32" y2="164.32"/><line style="stroke:#181818;stroke-width:1.0;" x1="208.22" x2="208.22" y1="156.32" y2="164.32"/><ellipse cx="208.22" cy="150.32" fill="none" rx="4" ry="4" style="stroke:#181818;stroke-width:1.0;"/><text fill="#000000" font-family="sans-serif" font-size="13" lengthAdjust="spacing" textLength="22.9785" x="209.22" y="130.6569">has</text></g><!--link Food-and-Beverages to Portions-and-Weights--><g id="link_Food-and-Beverages_Portions-and-Weights"><path codeLine="43" d="M176.6535,285.316 C164.4235,309.786 161.8598,314.9303 150.1398,338.3703 " fill="none" id="Food-and-Beverages-Portions-and-Weights" style="stroke:#181818;stroke-width:1.0;"/><line style="stroke:#181818;stroke-width:1.0;" x1="174.8637" x2="182.0197" y1="279.9497" y2="283.5263"/><line style="stroke:#181818;stroke-width:1.0;" x1="173.5225" x2="180.6785" y1="282.6332" y2="286.2098"/><line style="stroke:#181818;stroke-width:1.0;" x1="176.6535" x2="180.23" y1="285.316" y2="278.16"/><line style="stroke:#181818;stroke-width:1.0;" x1="145.6677" x2="147.4566" y1="347.3146" y2="357.1533"/><line style="stroke:#181818;stroke-width:1.0;" x1="145.6677" x2="136.7234" y1="347.3146" y2="351.7867"/><line style="stroke:#181818;stroke-width:1.0;" x1="145.6677" x2="142.09" y1="347.3146" y2="354.47"/><ellipse cx="148.351" cy="341.948" fill="none" rx="4" ry="4" style="stroke:#181818;stroke-width:1.0;"/><text fill="#000000" font-family="sans-serif" font-size="13" lengthAdjust="spacing" textLength="55.0278" x="164.22" y="320.8469">contains</text></g><!--link Food-and-Beverages to Food-and-Beverages-Values--><g id="link_Food-and-Beverages_Food-and-Beverages-Values"><path codeLine="44" d="M266.8887,283.9613 C292.8687,311.3213 305.6257,324.737 329.1457,349.507 " fill="none" id="Food-and-Beverages-Food-and-Beverages-Values" style="stroke:#181818;stroke-width:1.0;"/><line style="stroke:#181818;stroke-width:1.0;" x1="261.2337" x2="267.035" y1="283.815" y2="278.3063"/><line style="stroke:#181818;stroke-width:1.0;" x1="263.2994" x2="269.1007" y1="285.9904" y2="280.4818"/><line style="stroke:#181818;stroke-width:1.0;" x1="266.8887" x2="261.38" y1="283.9613" y2="278.16"/><line style="stroke:#181818;stroke-width:1.0;" x1="336.0314" x2="345.891" y1="356.7587" y2="358.4286"/><line style="stroke:#181818;stroke-width:1.0;" x1="336.0314" x2="337.189" y1="356.7587" y2="366.6914"/><line style="stroke:#181818;stroke-width:1.0;" x1="336.0314" x2="341.54" y1="356.7587" y2="362.56"/><ellipse cx="331.9" cy="352.4077" fill="none" rx="4" ry="4" style="stroke:#181818;stroke-width:1.0;"/><text fill="#000000" font-family="sans-serif" font-size="13" lengthAdjust="spacing" textLength="22.9785" x="305.22" y="320.8469">has</text></g><!--link Food-and-Beverages-Values to Nutrients--><g id="link_Food-and-Beverages-Values_Nutrients"><path codeLine="45" d="M416.7649,458.4601 C434.1949,483.6401 442.0958,495.0528 460.5558,521.7128 " fill="none" id="Food-and-Beverages-Values-Nutrients" style="stroke:#181818;stroke-width:1.0;"/><line style="stroke:#181818;stroke-width:1.0;" x1="411.0733" x2="401.5866" y1="450.2378" y2="447.075"/><line style="stroke:#181818;stroke-width:1.0;" x1="411.0733" x2="411.4534" y1="450.2378" y2="440.245"/><line style="stroke:#181818;stroke-width:1.0;" x1="411.0733" x2="406.52" y1="450.2378" y2="443.66"/><ellipse cx="414.4882" cy="455.1712" fill="none" rx="4" ry="4" style="stroke:#181818;stroke-width:1.0;"/><line style="stroke:#181818;stroke-width:1.0;" x1="466.1215" x2="459.5443" y1="522.7243" y2="527.2785"/><line style="stroke:#181818;stroke-width:1.0;" x1="464.4137" x2="457.8365" y1="520.2579" y2="524.8121"/><line style="stroke:#181818;stroke-width:1.0;" x1="460.5558" x2="465.11" y1="521.7128" y2="528.29"/><text fill="#000000" font-family="sans-serif" font-size="13" lengthAdjust="spacing" textLength="55.0278" x="444.22" y="494.7369">contains</text></g><!--link Ingredients to Ingredients-Values--><g id="link_Ingredients_Ingredients-Values"><path codeLine="46" d="M619.22,277.96 C619.22,304.11 619.22,310.41 619.22,336.54 " fill="none" id="Ingredients-Ingredients-Values" style="stroke:#181818;stroke-width:1.0;"/><line style="stroke:#181818;stroke-width:1.0;" x1="615.22" x2="623.22" y1="273.96" y2="273.96"/><line style="stroke:#181818;stroke-width:1.0;" x1="615.22" x2="623.22" y1="276.96" y2="276.96"/><line style="stroke:#181818;stroke-width:1.0;" x1="619.22" x2="619.22" y1="277.96" y2="269.96"/><line style="stroke:#181818;stroke-width:1.0;" x1="619.22" x2="625.22" y1="346.54" y2="354.54"/><line style="stroke:#181818;stroke-width:1.0;" x1="619.22" x2="613.22" y1="346.54" y2="354.54"/><line style="stroke:#181818;stroke-width:1.0;" x1="619.22" x2="619.22" y1="346.54" y2="354.54"/><ellipse cx="619.22" cy="340.54" fill="none" rx="4" ry="4" style="stroke:#181818;stroke-width:1.0;"/><text fill="#000000" font-family="sans-serif" font-size="13" lengthAdjust="spacing" textLength="22.9785" x="620.22" y="320.8469">has</text></g><!--link Ingredients-Values to Nutrients--><g id="link_Ingredients-Values_Nutrients"><path codeLine="47" d="M575.1494,466.8293 C558.4394,490.5693 553.2765,497.9094 536.5565,521.6494 " fill="none" id="Ingredients-Values-Nutrients" style="stroke:#181818;stroke-width:1.0;"/><line style="stroke:#181818;stroke-width:1.0;" x1="580.9053" x2="580.6036" y1="458.6519" y2="448.6565"/><line style="stroke:#181818;stroke-width:1.0;" x1="580.9053" x2="590.4164" y1="458.6519" y2="455.5635"/><line style="stroke:#181818;stroke-width:1.0;" x1="580.9053" x2="585.51" y1="458.6519" y2="452.11"/><ellipse cx="577.4518" cy="463.5584" fill="none" rx="4" ry="4" style="stroke:#181818;stroke-width:1.0;"/><line style="stroke:#181818;stroke-width:1.0;" x1="537.5236" x2="530.983" y1="527.223" y2="522.6164"/><line style="stroke:#181818;stroke-width:1.0;" x1="539.251" x2="532.7104" y1="524.7702" y2="520.1637"/><line style="stroke:#181818;stroke-width:1.0;" x1="536.5565" x2="531.95" y1="521.6494" y2="528.19"/><text fill="#000000" font-family="sans-serif" font-size="13" lengthAdjust="spacing" textLength="53.8726" x="564.22" y="494.7369">includes</text></g><!--SRC=[dLBBReCm4Bpp5LQEblm3t6Xe92vLBot7oCAkin9QLxQf58NyUmmXO8X3bFhcVSpCxev41-v8DcNvNcHiovrKsXmtv9GG_oWjSaf9IW1T7yYbhGpyEj3eezOPG9MSaqGEC3kj1UCes9lyauOhQL-3wXAP4D15URr_M4DxlNiFEI066ZwrwHfihwEKe0vkKj49p52CyWA8LL5N71_xgJMVqNqqlif__Z7f5uApqJqMg8mKwx2xVElLlt2S09Hzyxe9ZZEb5WkXutYBn1JleMARkJV3alR9DQBadk3EhMtBc3x5xPUI0xT9D7LhYpic9PL6nm6VTA-C-P1xh3XhnjfsvgAGT-Q36s7iZWDJB1Mb0ApgHaXx0G00]--></g></svg>